<svg width="1082" height="200" viewBox="0 0 1082 200" fill="none" xmlns="http://www.w3.org/2000/svg">
  <path fill-rule="evenodd" clip-rule="evenodd" d="M131.921 155.658L137.824 161.592C138.032 161.815 138.193 162.076 138.297 162.36C138.403 162.646 138.451 162.949 138.438 163.253C138.425 163.556 138.352 163.855 138.222 164.13C138.093 164.405 137.911 164.651 137.685 164.855L136.4 166.174C135.779 166.795 135.153 167.416 134.527 168.039C133.263 169.294 131.993 170.555 130.741 171.831L127.268 175.301C127.054 175.518 126.8 175.69 126.52 175.806C126.241 175.924 125.94 175.984 125.636 175.984C125.332 175.984 125.032 175.924 124.752 175.806C124.471 175.69 124.217 175.518 124.004 175.301L121.851 173.15C118.691 170.026 115.566 166.903 112.441 163.744L108.135 159.44L100.843 166.729L96.2593 171.276C95.9808 171.574 95.6294 171.794 95.2398 171.915C94.8502 172.037 94.4364 172.056 94.037 171.969C93.653 171.851 93.303 171.641 93.0183 171.356C92.7343 171.072 92.5232 170.723 92.4051 170.338L91.6759 168.152C91.5718 167.839 91.4676 167.528 91.3634 167.217C90.9482 165.977 90.537 164.75 90.1482 163.501L87.9607 157.046C87.4461 155.46 86.9308 153.939 86.4002 152.371C86.0711 151.4 85.7364 150.41 85.3912 149.376C85.1641 148.695 84.937 148.012 84.71 147.328C84.0322 145.29 83.3495 143.237 82.6482 141.185L79.9391 133.099C79.1412 130.6 78.3079 128.137 77.4745 125.673L77.4738 125.671L75.4599 119.597C74.9738 118.244 74.5225 116.855 74.0711 115.467L73.5502 113.975C73.4565 113.578 73.4662 113.163 73.5773 112.771C73.6891 112.378 73.8995 112.02 74.1877 111.732C74.4766 111.443 74.8343 111.233 75.2273 111.121C75.6204 111.01 76.035 111.001 76.4322 111.094L78.6544 111.823L83.2732 113.385L89.7662 115.537L97.4051 118.105L105.635 120.846L113.725 123.658L121.157 126.157L127.198 128.24L131.331 129.628L132.719 129.94C133.102 130.055 133.45 130.265 133.729 130.55C134.008 130.835 134.21 131.187 134.317 131.571C134.433 131.965 134.44 132.384 134.336 132.781C134.232 133.179 134.021 133.54 133.727 133.827L132.199 135.493L124.907 142.781L121.955 145.731L122.476 146.252L131.921 155.658ZM125.567 170.373H125.566L121.261 166.069L111.85 156.664L109.754 154.569C109.77 154.584 109.786 154.6 109.803 154.617L111.956 156.768L121.366 166.174L125.567 170.373ZM128.049 133.221C127.435 133.867 126.822 134.481 126.175 135.094L128.049 133.221ZM79.385 116.995C79.5412 117.428 79.6891 117.871 79.8363 118.313C79.9843 118.756 80.1315 119.199 80.2877 119.632L82.4405 126.157L85.1141 133.758C85.7537 136.007 86.4815 138.167 87.2093 140.328C87.3912 140.868 87.5732 141.408 87.7537 141.949L90.3579 150.07C90.7794 151.317 91.228 152.671 91.6586 153.971C92.078 155.237 92.4801 156.451 92.8232 157.462C93.1009 158.281 93.3725 159.094 93.6433 159.903C94.0502 161.119 94.4551 162.328 94.8718 163.536L94.8739 163.542C95.0815 164.199 95.2891 164.856 95.5315 165.513L95.5301 165.514C95.287 164.855 95.0787 164.196 94.8704 163.536C94.453 162.326 94.0482 161.117 93.6412 159.899C93.3704 159.091 93.0989 158.279 92.8218 157.462C92.4794 156.453 92.0787 155.242 91.6593 153.978C91.2287 152.676 90.7794 151.319 90.3565 150.069L87.7523 141.949C87.5718 141.407 87.3898 140.867 87.2079 140.327C86.4801 138.167 85.7523 136.007 85.1134 133.758L82.4398 126.157L80.2863 119.632C80.1301 119.199 79.9829 118.755 79.835 118.313C79.6877 117.871 79.5398 117.428 79.3836 116.994L79.385 116.995Z" fill="#3985F7"/>
  <path fill-rule="evenodd" clip-rule="evenodd" d="M118.113 44.0623L124.048 38.1596C124.27 37.9519 124.532 37.7908 124.817 37.6853C125.102 37.5797 125.405 37.5325 125.709 37.545C126.012 37.5582 126.311 37.6318 126.586 37.761C126.861 37.8901 127.107 38.0728 127.311 38.2985L128.63 39.5832C129.251 40.2047 129.872 40.8297 130.495 41.4568C131.75 42.7207 133.011 43.9894 134.287 45.2429L137.758 48.7158C137.974 48.9283 138.145 49.1825 138.262 49.463C138.38 49.7429 138.44 50.0436 138.44 50.3478C138.44 50.6512 138.38 50.9519 138.262 51.2318C138.145 51.5123 137.974 51.7665 137.758 51.9797L135.606 54.1325C132.482 57.2922 129.359 60.4172 126.2 63.5422L121.897 67.8485L129.185 75.1401L133.732 79.7235C134.029 80.0026 134.25 80.354 134.371 80.7436C134.493 81.1325 134.511 81.5471 134.426 81.9457C134.308 82.3304 134.097 82.6804 133.813 82.9645C133.529 83.2492 133.179 83.4596 132.795 83.5777L130.608 84.3075C130.295 84.4117 129.984 84.5159 129.673 84.62C128.433 85.0353 127.207 85.4464 125.957 85.8353L119.502 88.0228C117.916 88.5374 116.395 89.052 114.827 89.5832C113.856 89.9124 112.866 90.2471 111.832 90.5922C111.151 90.8193 110.468 91.0457 109.784 91.2735C107.746 91.9513 105.693 92.6332 103.641 93.3353L95.5544 96.0436C93.0558 96.8422 90.5926 97.6756 88.1294 98.5082L88.1273 98.5089L82.0537 100.523C80.6995 101.009 79.3113 101.461 77.9231 101.912L76.4308 102.433C76.0336 102.527 75.619 102.517 75.2266 102.405C74.8336 102.294 74.4766 102.084 74.1877 101.795C73.8988 101.506 73.6891 101.148 73.5773 100.756C73.4662 100.363 73.4565 99.9485 73.5502 99.5506L74.2794 97.3284L75.8412 92.7103L77.9926 86.2172L80.5613 78.5777L83.303 70.3485L86.1141 62.2575L88.6127 54.8269L90.6954 48.7846L92.0836 44.6526L92.3961 43.2637C92.5107 42.8811 92.7204 42.5339 93.0058 42.2547C93.2912 41.9755 93.6426 41.7728 94.0273 41.6665C94.4211 41.5498 94.8398 41.5436 95.2371 41.6478C95.635 41.7512 95.9968 41.9623 96.2829 42.2568L97.9489 43.7846L105.238 51.0769L108.188 54.0283L108.709 53.5075L118.113 44.0623ZM132.829 50.4165H132.829L128.525 54.7228L119.12 64.1332L117.04 66.2144C117.051 66.2026 117.062 66.1915 117.074 66.1797L119.225 64.0269L128.631 54.6165L132.829 50.4165ZM115.755 52.9158L115.754 52.9172L114.165 54.4971L115.755 52.9158ZM95.7079 47.9637C96.3329 48.5582 96.9273 49.1526 97.5211 49.7776L95.7079 47.9637ZM95.6593 47.9172L94.5836 51.145L92.3975 57.638L89.8634 65.2769L87.087 73.5068L84.4148 81.736L81.9155 89.1665L79.903 95.2436L79.4516 96.5978C79.8857 96.4415 80.328 96.2936 80.7704 96.1464C81.2127 95.9985 81.6558 95.8513 82.0891 95.695L88.6141 93.5422L96.2148 90.8686C98.4641 90.229 100.625 89.5013 102.785 88.7735C103.325 88.5915 103.865 88.4096 104.406 88.229L112.527 85.6249C113.775 85.2033 115.129 84.7547 116.428 84.3242C117.695 83.9047 118.909 83.5027 119.92 83.1596C120.738 82.8818 121.551 82.6103 122.36 82.3395C123.576 81.9325 124.785 81.5277 125.993 81.111L126 81.1089C126.656 80.9013 127.313 80.6936 127.969 80.452L127.97 80.4526C127.311 80.6957 126.652 80.904 125.992 81.1124C124.782 81.5297 123.572 81.9346 122.355 82.3422C121.547 82.6124 120.736 82.8839 119.918 83.161C118.909 83.5033 117.697 83.9047 116.434 84.3235C115.132 84.7547 113.775 85.204 112.526 85.627L104.404 88.2311C103.863 88.4117 103.323 88.5936 102.783 88.7756C100.622 89.5033 98.4627 90.2311 96.2134 90.87L88.6127 93.5436L82.0884 95.6964C81.6544 95.8527 81.212 96.0006 80.769 96.1478C80.3266 96.2957 79.8843 96.4429 79.4502 96.5992L79.9016 95.245L81.9148 89.1686L84.4134 81.7374L87.0857 73.5082L89.862 65.2783L92.3961 57.6394L94.5822 51.1457L95.6586 47.9165C95.6586 47.9165 95.6586 47.9172 95.6593 47.9172Z" fill="#3985F7"/>
  <path fill-rule="evenodd" clip-rule="evenodd" d="M20.3271 169.462L14.3917 175.365C14.1701 175.573 13.9083 175.734 13.6236 175.839C13.3382 175.945 13.0354 175.992 12.7313 175.98C12.4278 175.967 12.1299 175.894 11.8549 175.764C11.5799 175.635 11.3333 175.452 11.1292 175.226L9.81042 173.942C9.18959 173.32 8.56806 172.695 7.94584 172.068C6.69028 170.804 5.42986 169.535 4.15347 168.282L0.682639 164.81C0.466667 164.596 0.295142 164.342 0.177781 164.062C0.0604197 163.782 0 163.481 0 163.177C0 162.874 0.0604197 162.573 0.177781 162.293C0.295142 162.012 0.466667 161.758 0.682639 161.545L2.83473 159.392C5.95834 156.233 9.08195 153.108 12.2403 149.983L16.5438 145.676L9.25556 138.385L4.70903 133.801C4.41111 133.522 4.19028 133.171 4.06876 132.782C3.94723 132.392 3.92848 131.978 4.01459 131.579C4.13264 131.194 4.34306 130.844 4.62778 130.56C4.91181 130.276 5.26111 130.065 5.64584 129.947L7.83265 129.218C8.14515 129.113 8.45695 129.009 8.76737 128.905C10.0076 128.489 11.234 128.078 12.4833 127.689L18.9382 125.502C20.525 124.987 22.0451 124.473 23.6139 123.942C24.5847 123.613 25.5736 123.278 26.609 122.933C27.2889 122.705 27.9715 122.479 28.6563 122.251C30.6945 121.573 32.7466 120.892 34.7993 120.189L42.8861 117.481C45.3841 116.683 47.8479 115.849 50.3111 115.017L50.3132 115.016L56.3868 113.002C57.7403 112.516 59.1285 112.064 60.5167 111.613L62.0098 111.092C62.407 110.998 62.8216 111.008 63.2139 111.119C63.6063 111.23 63.9639 111.441 64.2528 111.73C64.541 112.019 64.7514 112.376 64.8625 112.769C64.9743 113.162 64.9841 113.576 64.8903 113.974L64.1612 116.196L62.5994 120.814L60.448 127.308L57.8792 134.947L55.1375 143.176L52.3264 151.267L49.8271 158.698L47.7452 164.74L46.357 168.872L46.0445 170.261C45.9299 170.644 45.7202 170.991 45.4348 171.27C45.1493 171.549 44.7979 171.752 44.4132 171.858C44.0188 171.975 43.6007 171.981 43.2028 171.877C42.8056 171.774 42.4438 171.562 42.157 171.268L40.491 169.74L33.2028 162.448L30.2528 159.496L29.732 160.017L20.3271 169.462ZM10.4708 133.073L10.4701 133.072C11.1292 132.829 11.7889 132.621 12.4486 132.412C13.6583 131.995 14.8681 131.59 16.0854 131.183C16.8938 130.912 17.7049 130.641 18.5222 130.364C19.5313 130.021 20.7424 129.62 22.007 129.201C23.3077 128.77 24.6646 128.321 25.9146 127.898L34.0361 125.294C34.5771 125.113 35.1174 124.931 35.6577 124.749C37.8174 124.021 39.9778 123.294 42.2264 122.655L49.8271 119.981L56.3521 117.828C56.7861 117.672 57.2285 117.524 57.6709 117.377C58.1139 117.229 58.5563 117.082 58.9896 116.926L58.5389 118.28L56.5257 124.356L54.0271 131.787L51.3542 140.017L48.5778 148.246L46.0445 155.885L43.8577 162.379L42.782 165.608C42.7813 165.608 42.7813 165.608 42.7806 165.607L43.8556 162.38L46.0424 155.887L48.5757 148.248L51.3521 140.018L54.025 131.789L56.5236 124.358L58.5368 118.281L58.9875 116.927C58.5542 117.083 58.1111 117.231 57.6688 117.378C57.2264 117.526 56.7841 117.673 56.35 117.83L49.825 119.983L42.2243 122.656C39.975 123.296 37.8146 124.023 35.6542 124.751C35.1146 124.933 34.575 125.115 34.0334 125.296L25.9125 127.9C24.6646 128.321 23.3104 128.77 22.0118 129.201C20.7452 129.62 19.5306 130.022 18.5201 130.365C17.7014 130.643 16.8889 130.914 16.0792 131.185C14.8632 131.592 13.6549 131.997 12.4458 132.414L12.4396 132.416C11.7833 132.623 11.1271 132.83 10.4708 133.073ZM42.7125 165.542L40.9382 163.767C41.5195 164.378 42.1014 164.96 42.7125 165.542ZM28.9146 154.46C28.8111 154.533 28.7132 154.614 28.6215 154.705L22.6868 160.608L13.2813 170.053L12.7604 170.539L13.2792 170.054L22.6847 160.609L28.6195 154.706C28.7118 154.616 28.8104 154.533 28.9146 154.46Z" fill="#3985F7"/>
  <path fill-rule="evenodd" clip-rule="evenodd" d="M7.25534 58.6018L1.35187 52.6671C1.14492 52.4449 0.983813 52.1838 0.878257 51.8984C0.772702 51.6136 0.724786 51.3102 0.737981 51.0067C0.750481 50.7032 0.824086 50.4046 0.953253 50.1296C1.08242 49.8546 1.26575 49.6081 1.49075 49.4046L2.77618 48.0859C3.3977 47.4643 4.02271 46.8428 4.64909 46.2206C5.91298 44.965 7.18243 43.7046 8.4359 42.4282L11.9081 38.9574C12.1213 38.7414 12.3755 38.5699 12.656 38.4532C12.9359 38.3359 13.2366 38.2754 13.5401 38.2754C13.8442 38.2754 14.1449 38.3359 14.4248 38.4532C14.7047 38.5699 14.9588 38.7414 15.172 38.9574L17.3255 41.1095C20.4852 44.2331 23.6102 47.3567 26.7352 50.515L31.0408 54.8192L38.3331 47.5303L42.9165 42.9838C43.1949 42.6859 43.5463 42.4657 43.9359 42.3442C44.3255 42.2227 44.7401 42.2039 45.1387 42.2893C45.5234 42.4074 45.8727 42.6185 46.1575 42.9025C46.4422 43.1865 46.6526 43.5366 46.7706 43.9206L47.4998 46.1074C47.604 46.4206 47.7088 46.7317 47.813 47.0421C48.2283 48.2824 48.6387 49.5088 49.0276 50.7581L51.2151 57.2136C51.7304 58.7998 52.245 60.3199 52.7762 61.8887C53.1047 62.8595 53.4394 63.8491 53.7845 64.8838C54.0116 65.5643 54.2387 66.247 54.4665 66.931C55.1436 68.9692 55.8262 71.022 56.5283 73.0741L59.2366 81.1609C60.0352 83.6595 60.8679 86.1227 61.7012 88.5866L61.7019 88.588L63.7158 94.6623C64.2019 96.0157 64.6533 97.4039 65.1047 98.7921L65.6255 100.285C65.7193 100.682 65.7102 101.096 65.5984 101.489C65.4866 101.882 65.2769 102.239 64.988 102.528C64.6991 102.816 64.3415 103.026 63.9484 103.138C63.5561 103.249 63.1408 103.259 62.7436 103.165L60.5214 102.436L55.9033 100.875L49.4095 98.7227L41.7706 96.1546L33.5408 93.4123L25.4505 90.6012L18.0192 88.1026L11.9776 86.0199L7.84562 84.6317L6.45673 84.3192C6.07409 84.2046 5.72687 83.9949 5.4477 83.7095C5.16854 83.4241 4.96576 83.0727 4.85951 82.688C4.74284 82.2942 4.73659 81.8755 4.84006 81.4782C4.94423 81.0803 5.15534 80.7185 5.44978 80.4324L6.97756 78.7664L14.2692 71.4782L17.2206 68.5275L16.6998 68.0074L7.25534 58.6018ZM13.6088 43.8872L13.6095 43.8866L17.9158 48.19L27.3255 57.5949L29.4373 59.706C29.4151 59.6852 29.3936 59.6643 29.372 59.6428L27.2192 57.4907L17.8088 48.0852L13.6088 43.8872ZM11.1491 81.0151C11.7484 80.3845 12.3477 79.7852 12.9783 79.1866L11.1491 81.0151ZM59.7901 97.2644C59.6338 96.8303 59.4859 96.388 59.3387 95.9456C59.1908 95.5033 59.0436 95.0609 58.8873 94.6269L56.7345 88.1019L54.0602 80.5012C53.4213 78.2518 52.6936 76.0914 51.9658 73.931C51.7838 73.3914 51.6019 72.8518 51.4213 72.3109L48.8172 64.1893C48.3957 62.9414 47.947 61.5873 47.5165 60.2887C47.097 59.022 46.695 57.8081 46.3519 56.797C46.0741 55.9782 45.8026 55.1657 45.5318 54.356C45.1248 53.14 44.72 51.9317 44.3033 50.7227L44.3012 50.7171C44.0936 50.0602 43.8859 49.4032 43.6443 48.7463L43.6457 48.7449C43.8887 49.4046 44.097 50.0636 44.3054 50.7234C44.7227 51.9331 45.1276 53.1428 45.5352 54.3602C45.8054 55.1685 46.0769 55.9796 46.354 56.797C46.6963 57.806 47.0977 59.0178 47.5165 60.2817C47.947 61.5831 48.397 62.94 48.8193 64.1893L51.4234 72.3109C51.604 72.8525 51.7859 73.3921 51.9679 73.9324C52.6956 76.0928 53.4234 78.2526 54.0623 80.5019L56.7366 88.1026L58.8894 94.6276C59.0457 95.0609 59.1929 95.5032 59.3408 95.9463C59.488 96.3887 59.6359 96.831 59.7922 97.2651L59.7901 97.2644Z" fill="#3985F7"/>
  <path d="M199.667 197.222C197.815 197.222 196.148 196.574 194.667 195.278C193.37 193.797 192.722 192.13 192.722 190.278V9.99987C192.722 7.96292 193.37 6.29632 194.667 5.00007C195.963 3.51854 197.63 2.77778 199.667 2.77778H278.278C302.352 2.77778 321.241 8.2407 334.944 19.1665C348.648 30.0929 355.5 46.111 355.5 67.2221C355.5 88.3333 348.648 104.167 334.944 114.722C321.241 125.092 302.352 130.278 278.278 130.278H246.611V190.278C246.611 192.13 245.963 193.797 244.667 195.278C243.37 196.574 241.703 197.222 239.667 197.222H199.667ZM276.889 90.5555C284.481 90.5555 290.408 88.611 294.667 84.7221C299.111 80.6478 301.333 74.7221 301.333 66.9443C301.333 59.7221 299.297 53.8888 295.222 49.4443C291.333 44.9999 285.222 42.7777 276.889 42.7777H245.778V90.5555H276.889ZM386.642 197.222C384.79 197.222 383.124 196.574 381.642 195.278C380.346 193.797 379.697 192.13 379.697 190.278V9.7223C379.697 7.68521 380.346 6.01855 381.642 4.72223C383.124 3.42591 384.79 2.77778 386.642 2.77778H425.531C427.568 2.77778 429.235 3.42591 430.531 4.72223C431.827 6.01855 432.475 7.68521 432.475 9.7223V153.611H515.809C517.846 153.611 519.513 154.352 520.809 155.833C522.29 157.13 523.031 158.797 523.031 160.833V190.278C523.031 192.315 522.29 193.981 520.809 195.278C519.513 196.574 517.846 197.222 515.809 197.222H386.642ZM533.867 197.222C532.386 197.222 530.997 196.667 529.7 195.556C528.589 194.259 528.034 192.87 528.034 191.389C528.034 190.278 528.126 189.444 528.311 188.889L593.034 10.8332C594.886 5.46306 598.589 2.77778 604.145 2.77778H647.478C653.034 2.77778 656.735 5.46306 658.589 10.8332L723.311 188.889C723.499 189.444 723.589 190.278 723.589 191.389C723.589 192.87 722.943 194.259 721.645 195.556C720.534 196.667 719.235 197.222 717.756 197.222H681.645C677.2 197.222 674.054 195.185 672.2 191.111L662.2 164.167H589.422L579.422 191.111C577.57 195.185 574.422 197.222 569.978 197.222H533.867ZM601.089 122.5H650.534L625.811 51.6666L601.089 122.5ZM819.555 200C793.075 200 772.242 193.611 757.055 180.833C742.055 168.056 734.096 149.352 733.166 124.722C732.985 119.722 732.888 111.574 732.888 100.278C732.888 88.7965 732.985 80.4631 733.166 75.2777C734.096 51.2041 742.152 32.6853 757.332 19.7221C772.707 6.5741 793.443 0 819.555 0C836.041 0 850.763 2.68521 863.721 8.05556C876.874 13.4263 887.242 21.204 894.832 31.3888C902.423 41.5742 906.409 53.611 906.777 67.4999C906.777 69.1666 906.131 70.5555 904.833 71.6666C903.721 72.7777 902.332 73.3332 900.666 73.3332H861.221C858.631 73.3332 856.687 72.8701 855.388 71.9444C854.277 70.8332 853.263 68.8888 852.332 66.111C849.742 57.0374 845.763 50.7409 840.388 47.2221C835.207 43.5186 828.263 41.6666 819.555 41.6666C798.631 41.6666 787.798 53.3332 787.055 76.6666C786.874 81.6666 786.777 89.352 786.777 99.7222C786.777 110.092 786.874 117.963 787.055 123.333C787.798 146.667 798.631 158.333 819.555 158.333C828.075 158.333 835.02 156.481 840.388 152.778C845.943 149.074 849.93 142.778 852.332 133.889C853.075 131.111 854.096 129.259 855.388 128.333C856.687 127.222 858.631 126.667 861.221 126.667H900.666C902.332 126.667 903.721 127.222 904.833 128.333C906.131 129.444 906.777 130.833 906.777 132.5C906.409 146.389 902.423 158.426 894.832 168.611C887.242 178.797 876.874 186.574 863.721 191.944C850.763 197.315 836.041 200 819.555 200ZM940.513 197.222C938.659 197.222 936.992 196.574 935.513 195.278C934.214 193.797 933.569 192.13 933.569 190.278V9.99987C933.569 7.96292 934.214 6.29632 935.513 5.00007C936.812 3.51854 938.478 2.77778 940.513 2.77778H1071.62C1073.66 2.77778 1075.33 3.51854 1076.62 5.00007C1078.1 6.29632 1078.85 7.96292 1078.85 9.99987V37.4999C1078.85 39.5374 1078.1 41.2041 1076.62 42.4999C1075.33 43.7964 1073.66 44.4443 1071.62 44.4443H983.846V79.7221H1065.51C1067.55 79.7221 1069.21 80.4631 1070.51 81.9444C1071.99 83.2409 1072.74 84.9076 1072.74 86.9444V112.222C1072.74 114.259 1071.99 116.019 1070.51 117.5C1069.21 118.796 1067.55 119.444 1065.51 119.444H983.846V155.556H1073.85C1075.88 155.556 1077.55 156.296 1078.85 157.778C1080.33 159.074 1081.07 160.741 1081.07 162.778V190.278C1081.07 192.315 1080.33 193.981 1078.85 195.278C1077.55 196.574 1075.88 197.222 1073.85 197.222H940.513Z" fill="#3985F7"/>
</svg>
