<svg width="32" height="32" viewBox="0 0 32 32" fill="none" xmlns="http://www.w3.org/2000/svg">
<g clip-path="url(#clip0)">
<path fill-rule="evenodd" clip-rule="evenodd" d="M21.1133 0.104348C20.9084 0.0712253 20.7037 0.0381277 20.5004 0H19.4561L18.6194 0.121607C16.0084 0.532029 14.1333 1.98827 12.9821 4.4204C12.2344 6.00433 12 7.70074 12 9.43668V10.4855H15.4061C15.4061 10.3833 15.4041 10.284 15.4021 10.1864C15.3981 9.99669 15.3944 9.81397 15.4061 9.63125C15.418 9.45112 15.4278 9.2706 15.4377 9.09009C15.4671 8.54856 15.4966 8.00704 15.5812 7.47577C15.7562 6.37523 16.1508 5.34461 16.9905 4.58761C18.3879 3.32898 20.0198 3.25298 21.6991 3.79717C23.1559 4.25623 23.868 5.4723 24.2626 6.88902C24.5142 7.93749 24.6142 9.01815 24.5593 10.0964V10.4825H27.9654V9.29987C27.9416 7.29336 27.6123 5.36285 26.5738 3.62084C25.6567 2.01245 24.1561 0.840925 22.3993 0.36178C21.9786 0.244215 21.5456 0.174227 21.1133 0.104348ZM11.8516 31.9027L12.2403 32H28.9266C28.9963 31.9824 29.0667 31.9663 29.1372 31.9502C29.3099 31.9107 29.4832 31.8711 29.6476 31.8085C30.2427 31.6126 30.7726 31.2504 31.1778 30.7628C31.583 30.2751 31.8473 29.6812 31.9411 29.048C31.9571 28.982 31.9769 28.917 32.0004 28.8534V16.4435C31.9786 16.3892 31.9607 16.3333 31.947 16.2763C31.8263 15.43 31.4056 14.659 30.7653 14.1105C30.1249 13.562 29.3098 13.2745 28.4756 13.303H12.6853C12.2285 13.2861 11.7731 13.3643 11.3466 13.5328C10.9201 13.7013 10.5314 13.9567 10.2039 14.2835C9.87638 14.6102 9.61692 15.0016 9.44117 15.434C9.26542 15.8664 9.17703 16.3308 9.18134 16.7992C9.16156 20.6967 9.16156 24.5952 9.18134 28.4947C9.17577 29.2908 9.43835 30.0646 9.9248 30.6854C10.4113 31.3063 11.0918 31.7362 11.8516 31.9027ZM19.4323 26.0808V24.8921C19.4323 24.8346 19.4312 24.7775 19.4302 24.7211C19.4283 24.6104 19.4264 24.5023 19.4323 24.3996C19.474 24.1529 19.451 23.8992 19.3655 23.6647C19.28 23.4301 19.1351 23.2231 18.9457 23.0649C18.2128 22.4356 18.109 21.2986 18.5422 20.4474C18.7492 20.0033 19.0878 19.6374 19.5096 19.402C19.9314 19.1666 20.415 19.0736 20.8914 19.1363C21.3678 19.1989 21.8128 19.4141 22.1629 19.751C22.513 20.088 22.7504 20.5295 22.8413 21.0128C22.9353 21.4477 22.9008 21.9014 22.7423 22.3161C22.5838 22.7308 22.3084 23.0878 21.9512 23.3416C21.8807 23.3882 21.8238 23.4535 21.7867 23.5306C21.7496 23.6077 21.7337 23.6937 21.7406 23.7794C21.7406 24.0398 21.7422 24.3003 21.7439 24.5607C21.7472 25.0816 21.7505 25.6025 21.7406 26.1234C21.7351 26.437 21.6082 26.7356 21.3878 26.9534C21.1675 27.1712 20.8717 27.2903 20.5656 27.2847C20.2595 27.2791 19.9682 27.149 19.7556 26.9233C19.5431 26.6975 19.4268 26.3944 19.4323 26.0808Z" fill="#3985F7"/>
</g>
<defs>
<clipPath id="clip0">
<rect width="32" height="32" fill="white"/>
</clipPath>
</defs>
</svg>
