<svg width="32" height="32" viewBox="0 0 32 32" fill="none" xmlns="http://www.w3.org/2000/svg">
<g clip-path="url(#clip0)">
<mask id="path-2-outside-1" maskUnits="userSpaceOnUse" x="-1" y="-1" width="34" height="34" fill="black">
<rect fill="white" x="-1" y="-1" width="34" height="34"/>
<path fill-rule="evenodd" clip-rule="evenodd" d="M1.34092 31.9759L17.3409 28.4208C17.7785 28.3213 18.1769 27.8782 18.1818 27.3764V22.3992C18.19 21.8358 17.6673 21.3175 17.0909 21.3175C16.5145 21.3175 15.992 21.8358 16 22.3992V26.5209L2.18183 29.5873V2.41272L16 5.47902V9.60074C15.9919 10.1642 16.5145 10.6825 17.0909 10.6825C17.6673 10.6825 18.19 10.1642 18.1818 9.60074V4.62357C18.1846 4.14529 17.8171 3.68887 17.3409 3.57924L1.34092 0.024116C0.701032 -0.123095 -0.00362178 0.425763 1.45784e-05 1.06843V30.9315C-0.00369451 31.5742 0.701032 32.1231 1.34092 31.9759ZM31.7046 16.7352C31.8829 16.5499 31.9899 16.2561 32.0001 16.0019C32.0007 15.7181 31.9037 15.4754 31.7046 15.2685L25.8864 9.22382C25.5084 8.8634 24.7252 8.73594 24.2955 9.13491C23.8658 9.53392 23.9346 10.3259 24.3068 10.6905L28.3977 14.9352H7.50009C6.89762 14.9352 6.40918 15.4127 6.40918 16.0019C6.40918 16.591 6.89762 17.0686 7.50009 17.0686H28.3977L24.3068 21.3132C23.8744 21.7093 23.8615 22.4744 24.2955 22.8688C24.7362 23.2694 25.4922 23.1264 25.8864 22.78L31.7046 16.7352Z"/>
</mask>
<path fill-rule="evenodd" clip-rule="evenodd" d="M1.34092 31.9759L17.3409 28.4208C17.7785 28.3213 18.1769 27.8782 18.1818 27.3764V22.3992C18.19 21.8358 17.6673 21.3175 17.0909 21.3175C16.5145 21.3175 15.992 21.8358 16 22.3992V26.5209L2.18183 29.5873V2.41272L16 5.47902V9.60074C15.9919 10.1642 16.5145 10.6825 17.0909 10.6825C17.6673 10.6825 18.19 10.1642 18.1818 9.60074V4.62357C18.1846 4.14529 17.8171 3.68887 17.3409 3.57924L1.34092 0.024116C0.701032 -0.123095 -0.00362178 0.425763 1.45784e-05 1.06843V30.9315C-0.00369451 31.5742 0.701032 32.1231 1.34092 31.9759ZM31.7046 16.7352C31.8829 16.5499 31.9899 16.2561 32.0001 16.0019C32.0007 15.7181 31.9037 15.4754 31.7046 15.2685L25.8864 9.22382C25.5084 8.8634 24.7252 8.73594 24.2955 9.13491C23.8658 9.53392 23.9346 10.3259 24.3068 10.6905L28.3977 14.9352H7.50009C6.89762 14.9352 6.40918 15.4127 6.40918 16.0019C6.40918 16.591 6.89762 17.0686 7.50009 17.0686H28.3977L24.3068 21.3132C23.8744 21.7093 23.8615 22.4744 24.2955 22.8688C24.7362 23.2694 25.4922 23.1264 25.8864 22.78L31.7046 16.7352Z" fill="black"/>
<path d="M17.3409 28.4208L17.3843 28.616L17.3852 28.6158L17.3409 28.4208ZM1.34092 31.9759L1.29754 31.7806L1.29609 31.781L1.34092 31.9759ZM18.1818 27.3764L18.3818 27.3784V27.3764H18.1818ZM18.1818 22.3992L17.9818 22.3963V22.3992H18.1818ZM16 22.3992H16.2L16.2 22.3964L16 22.3992ZM16 26.5209L16.0433 26.7162L16.2 26.6814V26.5209H16ZM2.18183 29.5873H1.98183V29.8365L2.22516 29.7825L2.18183 29.5873ZM2.18183 2.41272L2.22516 2.21747L1.98183 2.16348V2.41272H2.18183ZM16 5.47902H16.2V5.31853L16.0433 5.28377L16 5.47902ZM16 9.60074L16.2 9.60363V9.60074H16ZM18.1818 9.60074L17.9818 9.60074L17.9818 9.60363L18.1818 9.60074ZM18.1818 4.62357L17.9818 4.62241V4.62357H18.1818ZM17.3409 3.57924L17.3858 3.38433L17.3843 3.384L17.3409 3.57924ZM1.34092 0.024116L1.29608 0.21903L1.29754 0.219355L1.34092 0.024116ZM1.45784e-05 1.06843L0.200018 1.06843L0.200011 1.0673L1.45784e-05 1.06843ZM1.45784e-05 30.9315L0.200015 30.9327V30.9315H1.45784e-05ZM32.0001 16.0019L32.2001 16.0099L32.2001 16.0023L32.0001 16.0019ZM31.7046 16.7352L31.8487 16.8739L31.8488 16.8739L31.7046 16.7352ZM31.7046 15.2685L31.8487 15.1298L31.8487 15.1298L31.7046 15.2685ZM25.8864 9.22382L26.0307 9.085L26.0245 9.07906L25.8864 9.22382ZM24.2955 9.13491L24.4316 9.28148L24.4316 9.28147L24.2955 9.13491ZM24.3068 10.6905L24.4509 10.5517L24.4468 10.5477L24.3068 10.6905ZM28.3977 14.9352V15.1352H28.8682L28.5417 14.7964L28.3977 14.9352ZM28.3977 17.0686L28.5417 17.2074L28.8682 16.8686H28.3977V17.0686ZM24.3068 21.3132L24.4422 21.461L24.4508 21.452L24.3068 21.3132ZM24.2955 22.8688L24.4301 22.7209L24.4301 22.7208L24.2955 22.8688ZM25.8864 22.78L26.0185 22.9302L26.0247 22.9247L26.0305 22.9187L25.8864 22.78ZM17.2975 28.2255L1.29754 31.7806L1.3843 32.1711L17.3843 28.616L17.2975 28.2255ZM17.9818 27.3744C17.9779 27.7782 17.6492 28.1456 17.2966 28.2257L17.3852 28.6158C17.9078 28.497 18.3759 27.9782 18.3818 27.3784L17.9818 27.3744ZM17.9818 22.3992V27.3764H18.3818V22.3992H17.9818ZM17.0909 21.5175C17.5601 21.5175 17.9883 21.9488 17.9818 22.3963L18.3818 22.4021C18.3916 21.7227 17.7745 21.1175 17.0909 21.1175V21.5175ZM16.2 22.3964C16.1936 21.9487 16.6218 21.5175 17.0909 21.5175V21.1175C16.4072 21.1175 15.7904 21.7228 15.8 22.4021L16.2 22.3964ZM16.2 26.5209V22.3992H15.8V26.5209H16.2ZM2.22516 29.7825L16.0433 26.7162L15.9567 26.3257L2.1385 29.392L2.22516 29.7825ZM1.98183 2.41272V29.5873H2.38183V2.41272H1.98183ZM16.0433 5.28377L2.22516 2.21747L2.1385 2.60797L15.9567 5.67427L16.0433 5.28377ZM16.2 9.60074V5.47902H15.8V9.60074H16.2ZM17.0909 10.4825C16.6217 10.4825 16.1935 10.0512 16.2 9.60363L15.8 9.59785C15.7902 10.2772 16.4073 10.8825 17.0909 10.8825V10.4825ZM17.9818 9.60363C17.9883 10.0512 17.5601 10.4825 17.0909 10.4825V10.8825C17.7745 10.8825 18.3916 10.2772 18.3818 9.59785L17.9818 9.60363ZM17.9818 4.62357V9.60074H18.3818V4.62357H17.9818ZM17.296 3.77414C17.6839 3.86343 17.984 4.24064 17.9818 4.62241L18.3818 4.62474C18.3852 4.04994 17.9503 3.51431 17.3858 3.38434L17.296 3.77414ZM1.29754 0.219355L17.2975 3.77448L17.3843 3.384L1.3843 -0.171122L1.29754 0.219355ZM0.200011 1.0673C0.198616 0.820667 0.3344 0.577364 0.552039 0.407858C0.769461 0.23852 1.04528 0.161327 1.29608 0.219025L1.38576 -0.170793C0.996672 -0.260305 0.600221 -0.136675 0.306253 0.0922801C0.0125013 0.321067 -0.202223 0.673527 -0.199982 1.06956L0.200011 1.0673ZM0.200015 30.9315V1.06843H-0.199985V30.9315H0.200015ZM1.29609 31.781C1.04529 31.8387 0.769447 31.7615 0.552013 31.5921C0.334363 31.4226 0.198588 31.1793 0.200011 30.9327L-0.199982 30.9304C-0.202268 31.3264 0.0124662 31.6789 0.306225 31.9077C0.6002 32.1367 0.996667 32.2603 1.38576 32.1708L1.29609 31.781ZM31.8002 15.9939C31.7917 16.2079 31.6992 16.4524 31.5605 16.5966L31.8488 16.8739C32.0666 16.6475 32.1881 16.3042 32.1999 16.0099L31.8002 15.9939ZM31.5605 15.4072C31.7237 15.5767 31.8006 15.7696 31.8001 16.0014L32.2001 16.0023C32.2009 15.6665 32.0837 15.374 31.8487 15.1298L31.5605 15.4072ZM25.7424 9.36252L31.5605 15.4072L31.8487 15.1298L26.0305 9.08513L25.7424 9.36252ZM24.4316 9.28147C24.5929 9.1317 24.8335 9.07019 25.0922 9.09377C25.3516 9.11741 25.5972 9.22437 25.7484 9.36858L26.0245 9.07906C25.7976 8.86284 25.4626 8.72587 25.1285 8.69542C24.7937 8.66491 24.4278 8.73916 24.1595 8.98835L24.4316 9.28147ZM24.4468 10.5477C24.3049 10.4087 24.209 10.1725 24.2003 9.9188C24.1917 9.66658 24.2701 9.43141 24.4316 9.28148L24.1595 8.98834C23.8912 9.23742 23.7891 9.59774 23.8005 9.93243C23.8119 10.2657 23.9365 10.6078 24.1669 10.8334L24.4468 10.5477ZM28.5417 14.7964L24.4508 10.5517L24.1628 10.8293L28.2537 15.074L28.5417 14.7964ZM7.50009 15.1352H28.3977V14.7352H7.50009V15.1352ZM6.60918 16.0019C6.60918 15.5274 7.00381 15.1352 7.50009 15.1352V14.7352C6.79142 14.7352 6.20918 15.2981 6.20918 16.0019H6.60918ZM7.50009 16.8686C7.00382 16.8686 6.60918 16.4763 6.60918 16.0019H6.20918C6.20918 16.7056 6.79141 17.2686 7.50009 17.2686V16.8686ZM28.3977 16.8686H7.50009V17.2686H28.3977V16.8686ZM24.4508 21.452L28.5417 17.2074L28.2537 16.9298L24.1628 21.1744L24.4508 21.452ZM24.4301 22.7208C24.2621 22.5682 24.1737 22.3366 24.1763 22.0937C24.1788 21.8507 24.2723 21.6161 24.4419 21.4607L24.1717 21.1657C23.9089 21.4064 23.7798 21.7524 23.7763 22.0895C23.7728 22.4268 23.895 22.775 24.161 23.0169L24.4301 22.7208ZM25.7544 22.6297C25.5913 22.773 25.344 22.8803 25.0887 22.9055C24.8344 22.9306 24.5972 22.8728 24.4301 22.7209L24.161 23.0168C24.4345 23.2655 24.7957 23.3364 25.1281 23.3035C25.4595 23.2708 25.7873 23.1333 26.0185 22.9302L25.7544 22.6297ZM31.5605 16.5965L25.7424 22.6413L26.0305 22.9187L31.8487 16.8739L31.5605 16.5965Z" fill="white" mask="url(#path-2-outside-1)"/>
</g>
<defs>
<clipPath id="clip0">
<rect width="32" height="32" fill="white"/>
</clipPath>
</defs>
</svg>
