<svg width="32" height="32" viewBox="0 0 32 32" fill="none" xmlns="http://www.w3.org/2000/svg">
<path d="M10.8317 24.3201C11.4192 24.3201 11.8978 23.8324 11.9063 23.2259V14.3117C11.9063 13.6989 11.4253 13.2024 10.8317 13.2024C10.238 13.2024 9.75586 13.6989 9.75586 14.3117V23.2259C9.76434 23.8324 10.2429 24.3201 10.8317 24.3201Z" fill="#E53B3B"/>
<path d="M16.0008 24.3201C16.5884 24.3201 17.0682 23.8324 17.0754 23.2259V14.3117C17.0754 13.6989 16.5945 13.2024 16.0008 13.2024C15.4072 13.2024 14.9263 13.6989 14.9263 14.3117V23.2259C14.9335 23.8324 15.4133 24.3201 16.0008 24.3201Z" fill="#E53B3B"/>
<path d="M21.1703 24.3201C21.7591 24.3201 22.2376 23.8324 22.2461 23.2259V14.3117C22.2461 13.6989 21.7639 13.2024 21.1703 13.2024C20.5766 13.2024 20.0957 13.6989 20.0957 14.3117V23.2259C20.1042 23.8324 20.5827 24.3201 21.1703 24.3201Z" fill="#E53B3B"/>
<path d="M28.9242 5.37251H22.0453L21.1597 2.31234C20.7574 0.946711 19.5423 0.0100207 18.16 0H13.8447C12.4624 0.0100046 11.2473 0.946679 10.845 2.31234L9.96065 5.37251H3.07582C2.48218 5.37251 2 5.87024 2 6.48304C2 7.09584 2.48218 7.59229 3.07582 7.59229H4.35515V28.9548C4.36606 30.6381 5.69022 31.9963 7.31967 32H24.7143C26.351 31.9962 27.6764 30.6281 27.68 28.9386V7.55618H28.9254H28.9242C29.5178 7.55618 30 7.05969 30 6.44693C29.9988 6.15554 29.8837 5.87793 29.6814 5.67659C29.4791 5.47399 29.2065 5.36519 28.9242 5.37269V5.37251ZM12.924 2.94639L12.9252 2.94764C13.05 2.52745 13.4195 2.2348 13.8447 2.21982H18.1904C18.6266 2.21606 19.0106 2.5162 19.1245 2.95267L19.8151 5.37379L12.1803 5.37254L12.924 2.94639ZM25.5297 29.181H25.4546C25.3407 29.5211 25.033 29.7512 24.6853 29.7587H7.31986C6.86677 29.7512 6.50332 29.3711 6.5009 28.9021V7.55586H25.5296L25.5297 29.181Z" fill="#E53B3B"/>
</svg>
