<svg width="32" height="32" viewBox="0 0 32 32" fill="none" xmlns="http://www.w3.org/2000/svg">
<g clip-path="url(#clip0)">
<path fill-rule="evenodd" clip-rule="evenodd" d="M9.11329 0.104348C8.90838 0.0712253 8.70362 0.0381277 8.5004 0H7.45602L6.61934 0.121607C4.00839 0.532029 2.13326 1.98827 0.982071 4.4204C0.234391 6.00433 0 7.70074 0 9.43668C0 10.0159 0.469589 10.4855 1.04886 10.4855H2.55158C3.02352 10.4855 3.37579 10.1022 3.4061 9.63125C3.41796 9.45112 3.42779 9.2706 3.43762 9.09009C3.4671 8.54856 3.49659 8.00704 3.58115 7.47577C3.7562 6.37523 4.15081 5.34461 4.99046 4.58761C6.38791 3.32898 8.01975 3.25298 9.69906 3.79717C11.1559 4.25623 11.8679 5.4723 12.2625 6.88902C12.5142 7.93749 12.6142 9.01815 12.5592 10.0964V10.4825H15.9653V9.29987C15.9416 7.29336 15.6123 5.36285 14.5738 3.62084C13.6567 2.01245 12.1561 0.840925 10.3993 0.36178C9.97858 0.244215 9.5456 0.174227 9.11329 0.104348ZM11.8516 31.9027L12.2403 32H28.9266C28.9962 31.9824 29.0666 31.9663 29.1372 31.9502C29.3099 31.9107 29.4832 31.8711 29.6475 31.8085C30.2426 31.6126 30.7726 31.2504 31.1778 30.7628C31.583 30.2751 31.8473 29.6812 31.941 29.048C31.9571 28.982 31.9769 28.917 32.0004 28.8534V16.4435C31.9786 16.3892 31.9607 16.3333 31.947 16.2763C31.8263 15.43 31.4056 14.659 30.7652 14.1105C30.1249 13.562 29.3097 13.2745 28.4756 13.303H12.6853C12.2285 13.2861 11.7731 13.3643 11.3466 13.5328C10.9201 13.7013 10.5313 13.9567 10.2038 14.2835C9.87634 14.6102 9.61688 15.0016 9.44114 15.434C9.26539 15.8664 9.177 16.3308 9.18131 16.7992C9.16152 20.6967 9.16152 24.5952 9.18131 28.4947C9.17573 29.2908 9.43832 30.0646 9.92477 30.6854C10.4112 31.3063 11.0918 31.7362 11.8516 31.9027ZM19.4322 26.0808V24.8921C19.4322 24.8346 19.4312 24.7775 19.4302 24.7211C19.4282 24.6104 19.4263 24.5023 19.4322 24.3996C19.474 24.1529 19.451 23.8992 19.3655 23.6647C19.2799 23.4301 19.135 23.2231 18.9456 23.0649C18.2128 22.4356 18.109 21.2986 18.5421 20.4474C18.7492 20.0033 19.0877 19.6374 19.5096 19.402C19.9314 19.1666 20.415 19.0736 20.8914 19.1363C21.3678 19.1989 21.8128 19.4141 22.1629 19.751C22.513 20.088 22.7504 20.5295 22.8413 21.0128C22.9353 21.4477 22.9008 21.9014 22.7423 22.3161C22.5838 22.7308 22.3084 23.0878 21.9512 23.3416C21.8807 23.3882 21.8238 23.4535 21.7867 23.5306C21.7496 23.6077 21.7336 23.6937 21.7405 23.7794C21.7405 24.0398 21.7422 24.3003 21.7438 24.5607C21.7471 25.0816 21.7504 25.6025 21.7405 26.1234C21.735 26.437 21.6081 26.7356 21.3878 26.9534C21.1675 27.1712 20.8717 27.2903 20.5656 27.2847C20.2595 27.2791 19.9681 27.149 19.7556 26.9233C19.543 26.6975 19.4267 26.3944 19.4322 26.0808Z" fill="#3985F7"/>
</g>
<defs>
<clipPath id="clip0">
<rect width="32" height="32" fill="white"/>
</clipPath>
</defs>
</svg>
