<svg width="32" height="32" viewBox="0 0 32 32" fill="none" xmlns="http://www.w3.org/2000/svg">
<g clip-path="url(#clip0)">
<path fill-rule="evenodd" clip-rule="evenodd" d="M19.1963 5.78409L15.7251 9.25704L15.725 9.25704C15.3333 9.64759 14.8232 9.82859 14.2819 9.85445C13.7378 9.87894 13.2277 9.61218 12.8401 9.25565C12.4619 8.91134 12.2416 8.31394 12.2416 7.81314C12.2416 7.28921 12.4701 6.74079 12.8401 6.37063L12.9897 6.22094L15.3265 3.88298L16.3602 2.84871C16.8268 2.37784 17.3219 1.95598 17.8632 1.5722C18.2441 1.30273 18.6494 1.06731 19.0779 0.886311C19.6356 0.637253 20.1987 0.405914 20.7945 0.263022C21.3956 0.118768 22.0173 0.0343949 22.6334 0.00717765C23.2482 -0.0241244 23.8508 0.052084 24.4588 0.136458C24.9008 0.1977 25.3388 0.299762 25.7605 0.442654C26.3454 0.638584 26.9234 0.887639 27.4607 1.19383C27.9994 1.49867 28.4985 1.87969 28.9678 2.28524C29.3146 2.58464 29.6302 2.91533 29.9131 3.27597C30.3048 3.76858 30.6748 4.26938 30.9605 4.83007C31.2393 5.37169 31.4773 5.94325 31.6474 6.52842C31.8201 7.12447 31.9099 7.74233 31.967 8.35879C32.0105 8.80241 32.0105 9.24744 31.9697 9.68971C31.9112 10.2994 31.8269 10.9118 31.6596 11.4997C31.4923 12.0916 31.2475 12.6727 30.9727 13.2211C30.6898 13.7791 30.3253 14.269 29.9417 14.7589C29.7499 15.0039 29.5432 15.2352 29.3255 15.4557C28.8693 15.9139 28.4125 16.3704 27.9559 16.8266C27.7278 17.0546 27.4996 17.2825 27.2717 17.5106C27.0944 17.6891 26.9183 17.8701 26.742 18.0512C26.2895 18.5162 25.8354 18.9829 25.3538 19.4158C24.4099 20.2664 23.3625 20.8815 22.1683 21.3142C21.7507 21.468 21.3154 21.5796 20.8734 21.6476C20.2721 21.7429 19.6628 21.8205 19.0507 21.8041C16.7358 21.7429 14.4888 20.8012 12.8456 19.1572C12.4539 18.7653 12.2716 18.2564 12.2471 17.7147C12.2227 17.1704 12.4893 16.6601 12.8456 16.2722C13.1898 15.8939 13.7869 15.6734 14.2874 15.6734C14.8111 15.6734 15.3592 15.9021 15.7292 16.2722C15.8743 16.4183 16.0272 16.5579 16.1853 16.691C16.5401 16.945 16.9157 17.1662 17.3107 17.3508C17.7292 17.5075 18.1606 17.6245 18.6003 17.7C19.0212 17.7377 19.4442 17.7378 19.8651 17.7003C20.3082 17.6241 20.7402 17.507 21.161 17.3495C21.5496 17.1679 21.9196 16.9512 22.2693 16.7015C22.5419 16.4696 22.7945 16.2187 23.047 15.966L25.294 13.7179C25.4346 13.5776 25.5779 13.4382 25.7217 13.2984C26.1205 12.9106 26.523 12.5193 26.8797 12.095C27.1347 11.7389 27.3567 11.3618 27.5419 10.9653C27.6984 10.5465 27.8154 10.115 27.8909 9.67503C27.9285 9.25392 27.9286 8.83069 27.8912 8.40958C27.815 7.96628 27.698 7.53412 27.5406 7.11306C27.3566 6.71897 27.1366 6.34408 26.8827 5.98997C26.6186 5.67589 26.3289 5.38452 26.0145 5.11939C25.6573 4.8629 25.2789 4.63973 24.881 4.45373C24.4624 4.29706 24.0311 4.18001 23.5913 4.10451C23.1704 4.06687 22.7474 4.06677 22.3265 4.10421C21.8834 4.18039 21.4515 4.29748 21.0306 4.45499C20.6383 4.63837 20.265 4.85746 19.9123 5.11016C19.6613 5.32306 19.4284 5.55189 19.1963 5.78409ZM20.1213 4.94035C20.1125 4.94717 20.1038 4.954 20.095 4.96084C20.1037 4.95399 20.1125 4.94716 20.1213 4.94035ZM22.0255 4.13744C22.0517 4.13399 22.0779 4.13068 22.1041 4.12751C22.078 4.13083 22.0518 4.13413 22.0255 4.13744ZM25.1009 4.54017C25.1193 4.54781 25.1376 4.55545 25.1559 4.56309L25.1567 4.5634C25.1381 4.55558 25.1195 4.54783 25.1009 4.54017ZM27.858 8.10842C27.8614 8.13461 27.8647 8.16081 27.8679 8.18703C27.8646 8.16088 27.8613 8.13468 27.858 8.10842ZM27.4556 11.1851C27.4479 11.2035 27.4402 11.2219 27.4326 11.2403L27.4322 11.2411C27.4401 11.2225 27.4479 11.2038 27.4556 11.1851ZM20.1661 17.6671C20.14 17.6705 20.1138 17.6738 20.0876 17.677C20.1137 17.6737 20.1399 17.6704 20.1661 17.6671ZM17.035 17.2411C17.0535 17.2489 17.0721 17.2566 17.0906 17.2643C17.0721 17.2567 17.0535 17.2489 17.035 17.2411ZM12.8037 26.216L16.2749 22.7431L16.275 22.7431C16.6667 22.3525 17.1768 22.1715 17.7141 22.1375C18.2581 22.113 18.7682 22.3798 19.1559 22.7363C19.534 23.0806 19.7544 23.678 19.7544 24.1788C19.7544 24.7028 19.5258 25.2512 19.1559 25.6213L19.0062 25.771L16.6695 28.109L15.6357 29.1433C15.1692 29.6141 14.674 30.036 14.1327 30.4198C13.7518 30.6919 13.3465 30.9233 12.9221 31.1138C12.3644 31.3629 11.8013 31.5942 11.2055 31.7371C10.6044 31.8813 9.98275 31.9657 9.36659 31.9929C8.75179 32.0242 8.14922 31.948 7.54122 31.8637C7.09917 31.8024 6.66115 31.7004 6.23951 31.5575C5.65462 31.3615 5.07657 31.1125 4.53928 30.8063C4.00064 30.5014 3.50148 30.1204 3.0322 29.7149C2.68539 29.4155 2.36981 29.0848 2.08689 28.7241C1.69515 28.2315 1.32519 27.7307 1.03955 27.1701C0.760702 26.6284 0.52266 26.0569 0.352638 25.4717C0.179895 24.8756 0.0901203 24.2578 0.0329933 23.6413C-0.0105334 23.1977 -0.0105334 22.7527 0.0302731 22.3104C0.0887581 21.7007 0.17309 21.0884 0.340394 20.5005C0.507708 19.9085 0.752547 19.3274 1.0273 18.779C1.31022 18.221 1.67473 17.7311 2.05831 17.2412C2.25007 16.9962 2.45684 16.7649 2.67447 16.5444C3.13063 16.0862 3.58741 15.6298 4.04399 15.1736C4.27219 14.9456 4.50034 14.7176 4.72834 14.4895C4.90564 14.311 5.08167 14.1301 5.25794 13.9489C5.71045 13.4839 6.16458 13.0172 6.64619 12.5843C7.59015 11.7338 8.63749 11.1187 9.83174 10.6859C10.2493 10.5321 10.6846 10.4205 11.1267 10.3525C11.7279 10.2572 12.3372 10.1797 12.9493 10.196C15.2642 10.2572 17.5113 11.1989 19.1544 12.8429C19.5461 13.2348 19.7284 13.7438 19.7529 14.2854C19.7774 14.8297 19.5107 15.34 19.1544 15.7279C18.8102 16.1062 18.2131 16.3267 17.7126 16.3267C17.1889 16.3267 16.6408 16.0981 16.2708 15.7279C16.1257 15.5818 15.9728 15.4422 15.8147 15.3092C15.4599 15.0551 15.0843 14.8339 14.6893 14.6493C14.2708 14.4926 13.8394 14.3756 13.3997 14.3001C12.9788 14.2624 12.5558 14.2623 12.1349 14.2998C11.6918 14.376 11.2598 14.4931 10.839 14.6506C10.4504 14.8322 10.0804 15.0489 9.7307 15.2986C9.45811 15.5305 9.20555 15.7814 8.953 16.0341L6.70598 18.2822C6.56544 18.4225 6.4221 18.5619 6.27827 18.7018C5.87949 19.0895 5.47701 19.4809 5.12033 19.9052C4.8653 20.2612 4.64331 20.6383 4.45816 21.0348C4.30158 21.4536 4.18458 21.8851 4.10912 22.3251C4.0715 22.7462 4.0714 23.1694 4.10882 23.5905C4.18496 24.0338 4.302 24.466 4.45943 24.8871C4.64344 25.2812 4.86343 25.656 5.11727 26.0101C5.38142 26.3242 5.67114 26.6156 5.98554 26.8807C6.34269 27.1372 6.72107 27.3604 7.11901 27.5464C7.53759 27.7031 7.96895 27.8201 8.40869 27.8956C8.82958 27.9332 9.25259 27.9334 9.67348 27.8959C10.1166 27.8197 10.5485 27.7026 10.9694 27.5451C11.3617 27.3617 11.735 27.1427 12.0877 26.89C12.3387 26.6771 12.5716 26.4482 12.8037 26.216ZM11.8787 27.0598C11.8875 27.0529 11.8963 27.0461 11.9051 27.0392C11.8963 27.0461 11.8876 27.0529 11.8787 27.0598ZM9.97451 27.8627C9.94831 27.8661 9.9221 27.8694 9.89589 27.8726C9.92204 27.8693 9.94825 27.866 9.97451 27.8627ZM6.89929 27.46C6.88092 27.4524 6.86254 27.4447 6.84416 27.4371L6.84335 27.4367C6.86197 27.4446 6.88061 27.4523 6.89929 27.46ZM4.14203 23.8917C4.13858 23.8655 4.13528 23.8393 4.13212 23.8131C4.13543 23.8393 4.13873 23.8654 4.14203 23.8917ZM4.56778 20.759C4.56005 20.7775 4.55233 20.7961 4.5446 20.8146C4.55225 20.7961 4.55997 20.7775 4.56778 20.759ZM11.8339 14.333C11.86 14.3296 11.8862 14.3263 11.9124 14.3231C11.8863 14.3264 11.8601 14.3297 11.8339 14.333ZM14.9093 14.7358C14.9277 14.7434 14.9461 14.7511 14.9644 14.7587L14.965 14.759C14.9465 14.7512 14.9279 14.7434 14.9093 14.7358Z" fill="black"/>
</g>
<defs>
<clipPath id="clip0">
<rect width="32" height="32" fill="white"/>
</clipPath>
</defs>
</svg>
