<svg width="32" height="32" viewBox="0 0 32 32" fill="none" xmlns="http://www.w3.org/2000/svg">
<g clip-path="url(#clip0)">
<path fill-rule="evenodd" clip-rule="evenodd" d="M19.1963 5.78407L15.7251 9.257L15.725 9.25701C15.3333 9.64756 14.8232 9.82855 14.2819 9.85441C13.7378 9.8789 13.2277 9.61215 12.8401 9.25561C12.4619 8.91131 12.2416 8.31391 12.2416 7.81311C12.2416 7.28918 12.4701 6.74076 12.8401 6.37061L12.9897 6.22091L15.3265 3.88297L16.3602 2.8487C16.8268 2.37783 17.3219 1.95597 17.8632 1.5722C18.2441 1.30273 18.6494 1.0673 19.0779 0.886308C19.6356 0.637251 20.1987 0.405913 20.7945 0.263021C21.3956 0.118767 22.0173 0.0343948 22.6334 0.00717762C23.2482 -0.0241243 23.8508 0.0520838 24.4588 0.136458C24.9008 0.1977 25.3388 0.299761 25.7605 0.442653C26.3454 0.638582 26.9234 0.887635 27.4607 1.19383C27.9994 1.49866 28.4985 1.87969 28.9678 2.28524C29.3146 2.58463 29.6302 2.91532 29.9131 3.27596C30.3048 3.76857 30.6748 4.26936 30.9605 4.83005C31.2393 5.37167 31.4773 5.94323 31.6474 6.5284C31.8201 7.12444 31.9099 7.7423 31.967 8.35876C32.0105 8.80238 32.0105 9.2474 31.9697 9.68967C31.9112 10.2993 31.8269 10.9117 31.6596 11.4996C31.4923 12.0916 31.2475 12.6727 30.9727 13.2211C30.6898 13.7791 30.3253 14.269 29.9417 14.7589C29.7499 15.0038 29.5432 15.2352 29.3255 15.4556C28.8694 15.9138 28.4127 16.3701 27.9562 16.8263C27.7279 17.0544 27.4997 17.2824 27.2717 17.5105C27.0944 17.6891 26.9183 17.87 26.7421 18.0511C26.2895 18.5162 25.8354 18.9829 25.3538 19.4157C24.4099 20.2663 23.3625 20.8814 22.1683 21.3141C21.7507 21.4679 21.3154 21.5795 20.8734 21.6476C20.2721 21.7428 19.6628 21.8204 19.0507 21.8041C16.7358 21.7428 14.4888 20.8011 12.8456 19.1572C12.4539 18.7652 12.2716 18.2563 12.2471 17.7147C12.2227 17.1703 12.4893 16.66 12.8456 16.2722C13.1898 15.8938 13.7869 15.6734 14.2874 15.6734C14.8111 15.6734 15.3592 15.902 15.7292 16.2722C15.8743 16.4183 16.0272 16.5578 16.1853 16.6909C16.5401 16.9449 16.9157 17.1662 17.3107 17.3507C17.7292 17.5074 18.1606 17.6245 18.6003 17.7C19.0212 17.7376 19.4442 17.7377 19.8651 17.7003C20.3082 17.6241 20.7402 17.507 21.161 17.3495C21.5496 17.1678 21.9196 16.9512 22.2693 16.7015C22.5419 16.4695 22.7945 16.2186 23.047 15.966L25.294 13.7178C25.4346 13.5775 25.5779 13.4382 25.7217 13.2983C26.1205 12.9106 26.523 12.5192 26.8797 12.0949C27.1347 11.7389 27.3567 11.3618 27.5419 10.9653C27.6984 10.5465 27.8154 10.1149 27.8909 9.675C27.9285 9.25389 27.9286 8.83066 27.8912 8.40955C27.815 7.96625 27.698 7.53409 27.5406 7.11304C27.3566 6.71895 27.1366 6.34406 26.8827 5.98995C26.6186 5.67587 26.3289 5.3845 26.0145 5.11937C25.6573 4.86288 25.2789 4.63971 24.881 4.45371C24.4624 4.29705 24.0311 4.17999 23.5913 4.10449C23.1704 4.06685 22.7474 4.06675 22.3265 4.10419C21.8834 4.18037 21.4515 4.29747 21.0306 4.45498C20.6383 4.63835 20.265 4.85745 19.9123 5.11014C19.6613 5.32304 19.4284 5.55187 19.1963 5.78407ZM20.1213 4.94033C20.1125 4.94714 20.1038 4.95396 20.095 4.9608C20.1038 4.95395 20.1125 4.94713 20.1213 4.94033ZM22.0255 4.13743C22.0517 4.13397 22.0779 4.13066 22.1041 4.1275C22.078 4.13081 22.0518 4.13412 22.0255 4.13743ZM25.1012 4.54025C25.1195 4.54791 25.1379 4.55558 25.1563 4.56324L25.1567 4.56338C25.1382 4.55559 25.1197 4.54788 25.1012 4.54025ZM27.858 8.10839C27.8614 8.13458 27.8647 8.16078 27.8679 8.187C27.8646 8.16085 27.8613 8.13465 27.858 8.10839ZM27.4554 11.1853C27.4478 11.2037 27.4401 11.2221 27.4325 11.2404L27.4322 11.2411C27.44 11.2225 27.4478 11.204 27.4554 11.1853ZM20.1661 17.667C20.1399 17.6705 20.1137 17.6738 20.0875 17.677C20.1137 17.6736 20.1399 17.6703 20.1661 17.667ZM17.0908 17.2644C17.0725 17.2567 17.0542 17.2491 17.0358 17.2414L17.035 17.2411C17.0536 17.2489 17.0722 17.2567 17.0908 17.2644ZM12.8037 26.2159L16.2749 22.743L16.275 22.743C16.6667 22.3525 17.1768 22.1715 17.7141 22.1374C18.2581 22.1129 18.7682 22.3797 19.1559 22.7362C19.534 23.0805 19.7544 23.6779 19.7544 24.1787C19.7544 24.7027 19.5258 25.2511 19.1559 25.6212L19.0062 25.7709L16.6695 28.1089L15.6357 29.1431C15.1692 29.614 14.674 30.0359 14.1327 30.4196C13.7518 30.6918 13.3465 30.9232 12.9221 31.1137C12.3644 31.3627 11.8013 31.5941 11.2055 31.737C10.6044 31.8812 9.98275 31.9656 9.36659 31.9928C8.75179 32.0241 8.14922 31.9479 7.54122 31.8635C7.09917 31.8023 6.66115 31.7002 6.23951 31.5573C5.65462 31.3614 5.07657 31.1124 4.53928 30.8062C4.00064 30.5013 3.50148 30.1203 3.0322 29.7148C2.68539 29.4154 2.36981 29.0847 2.08689 28.724C1.69515 28.2314 1.32519 27.7306 1.03955 27.1699C0.760702 26.6283 0.52266 26.0568 0.352638 25.4716C0.179895 24.8756 0.0901203 24.2577 0.0329933 23.6412C-0.0105334 23.1976 -0.0105334 22.7526 0.0302731 22.3103C0.0887581 21.7007 0.17309 21.0883 0.340394 20.5004C0.507708 19.9084 0.752547 19.3273 1.0273 18.7789C1.31022 18.2209 1.67473 17.731 2.05831 17.2411C2.25007 16.9962 2.45684 16.7648 2.67447 16.5444C3.13055 16.0862 3.58726 15.6299 4.04375 15.1738C4.27203 14.9457 4.50026 14.7177 4.72834 14.4895C4.90564 14.3109 5.08166 14.13 5.25793 13.9489C5.71045 13.4838 6.16458 13.0171 6.64619 12.5842C7.59015 11.7337 8.63749 11.1186 9.83174 10.6859C10.2493 10.5321 10.6846 10.4205 11.1267 10.3524C11.7279 10.2572 12.3372 10.1796 12.9493 10.1959C15.2642 10.2572 17.5113 11.1989 19.1544 12.8428C19.5461 13.2348 19.7284 13.7437 19.7529 14.2853C19.7774 14.8297 19.5107 15.34 19.1544 15.7278C18.8102 16.1062 18.2131 16.3266 17.7126 16.3266C17.1889 16.3266 16.6408 16.098 16.2708 15.7278C16.1257 15.5817 15.9728 15.4422 15.8147 15.3091C15.4599 15.055 15.0843 14.8338 14.6893 14.6492C14.2708 14.4926 13.8394 14.3755 13.3997 14.3C12.9788 14.2624 12.5558 14.2623 12.1349 14.2997C11.6918 14.3759 11.2598 14.493 10.839 14.6505C10.4504 14.8322 10.0804 15.0488 9.7307 15.2985C9.45811 15.5304 9.20556 15.7814 8.953 16.034L6.70598 18.2822C6.56544 18.4225 6.4221 18.5618 6.27827 18.7017C5.87949 19.0894 5.47701 19.4808 5.12033 19.9051C4.8653 20.2611 4.64331 20.6382 4.45816 21.0347C4.30158 21.4535 4.18458 21.885 4.10912 22.325C4.0715 22.7461 4.0714 23.1693 4.10882 23.5904C4.18496 24.0338 4.302 24.4659 4.45943 24.887C4.64344 25.2811 4.86343 25.6559 5.11727 26.01C5.38142 26.3241 5.67113 26.6155 5.98553 26.8806C6.34268 27.1371 6.72106 27.3603 7.11901 27.5463C7.53759 27.703 7.96896 27.82 8.40871 27.8955C8.82959 27.9331 9.25259 27.9332 9.67347 27.8958C10.1166 27.8196 10.5485 27.7025 10.9694 27.545C11.3617 27.3616 11.735 27.1425 12.0877 26.8899C12.3387 26.677 12.5716 26.4481 12.8037 26.2159ZM11.8787 27.0597C11.8875 27.0528 11.8963 27.046 11.9051 27.0391C11.8963 27.046 11.8875 27.0528 11.8787 27.0597ZM9.97451 27.8626C9.94832 27.866 9.92212 27.8693 9.89591 27.8725C9.92205 27.8692 9.94825 27.8659 9.97451 27.8626ZM6.89928 27.4599C6.88091 27.4523 6.86254 27.4446 6.84416 27.437L6.84335 27.4366C6.86197 27.4445 6.88061 27.4522 6.89928 27.4599ZM4.14203 23.8916C4.13858 23.8654 4.13528 23.8392 4.13212 23.813C4.13543 23.8392 4.13873 23.8654 4.14203 23.8916ZM4.56778 20.7589C4.56005 20.7775 4.55232 20.796 4.54459 20.8146C4.55224 20.796 4.55997 20.7774 4.56778 20.7589ZM11.8339 14.333C11.8601 14.3295 11.8863 14.3262 11.9125 14.323C11.8863 14.3264 11.8601 14.3297 11.8339 14.333ZM14.9092 14.7357C14.9275 14.7433 14.9458 14.7509 14.964 14.7585L14.965 14.7589C14.9464 14.7511 14.9278 14.7433 14.9092 14.7357Z" fill="#3985F7"/>
</g>
<defs>
<clipPath id="clip0">
<rect width="32" height="32" fill="white"/>
</clipPath>
</defs>
</svg>
