<svg width="32" height="32" viewBox="0 0 32 32" fill="none" xmlns="http://www.w3.org/2000/svg">
<path d="M30.6938 24.3349C29.7815 23.4226 28.8728 22.5139 27.9605 21.6016C26.5136 20.1547 25.0667 18.7078 23.6234 17.2645C23.545 17.1861 23.463 17.1041 23.3811 17.0222C23.8301 16.5731 24.2791 16.1241 24.7317 15.6715C25.8507 14.5525 26.9733 13.4299 28.0923 12.3109C28.3525 12.0508 28.6091 11.7942 28.8692 11.534C29.1401 11.2632 29.247 10.8605 29.1436 10.4934C29.0403 10.1192 28.7552 9.86619 28.3952 9.74502C28.1636 9.66662 27.9284 9.58822 27.6967 9.51338C27.0624 9.30312 26.4316 9.0893 25.7973 8.87903C24.8671 8.56899 23.9334 8.25538 23.0033 7.94534C21.8629 7.56402 20.7225 7.1827 19.5821 6.80138C18.3384 6.38442 17.0946 5.97103 15.8509 5.55407C14.5893 5.13355 13.3278 4.70947 12.0662 4.28895C10.8902 3.89694 9.71414 3.50136 8.53811 3.10935C7.54383 2.77793 6.54955 2.4465 5.55527 2.11151C4.84252 1.87274 4.13334 1.63397 3.42059 1.39876C3.08203 1.28472 2.74348 1.16356 2.40493 1.06021C2.39067 1.05665 2.37642 1.04952 2.36216 1.04595C1.60665 0.796493 0.794118 1.60902 1.04714 2.36453C1.12555 2.59618 1.20395 2.83138 1.27879 3.06303C1.48905 3.69737 1.70287 4.32815 1.91313 4.96249C2.22318 5.89263 2.53678 6.82633 2.84683 7.75646C3.22815 8.89685 3.60947 10.0372 3.99079 11.1776C4.40774 12.4214 4.82114 13.6651 5.23809 14.9089C5.65861 16.1704 6.0827 17.432 6.50322 18.6936C6.89523 19.8696 7.2908 21.0456 7.68281 22.2216C8.01424 23.2159 8.34567 24.2102 8.68066 25.2045C8.91943 25.9172 9.1582 26.6264 9.39341 27.3392C9.50745 27.6777 9.61792 28.0163 9.73196 28.3548C9.73552 28.3691 9.74265 28.3833 9.74621 28.3976C9.86738 28.7575 10.1168 29.0426 10.4946 29.146C10.8617 29.2458 11.2644 29.1388 11.5352 28.8716C12.2373 28.1695 12.9393 27.4675 13.6414 26.7654C14.7604 25.6464 15.883 24.5238 17.002 23.4048C17.0091 23.3977 17.0162 23.3905 17.0234 23.3834C17.6826 24.0427 18.3419 24.702 19.0012 25.3613C20.4481 26.8082 21.895 28.255 23.3419 29.6983C23.6733 30.0298 24.0047 30.3612 24.3361 30.6926C24.746 31.1025 25.4373 31.1025 25.8472 30.6926C26.396 30.1438 26.9448 29.595 27.49 29.0497C28.3596 28.1802 29.2256 27.3142 30.0951 26.4447C30.2947 26.2451 30.4943 26.0455 30.6938 25.846C31.1037 25.4361 31.1037 24.7448 30.6938 24.3349ZM25.0881 28.4261C24.4288 27.7668 23.7695 27.1075 23.1102 26.4482C21.6633 25.0014 20.2165 23.5545 18.7696 22.1112C18.4382 21.7797 18.1067 21.4483 17.7753 21.1169C17.3655 20.7071 16.6741 20.7071 16.2643 21.1169C15.5622 21.8189 14.8602 22.521 14.1581 23.2231C13.1888 24.1924 12.2123 25.1688 11.243 26.1382C11.1432 25.8353 11.0398 25.5359 10.9401 25.233C10.63 24.3029 10.3164 23.3692 10.0064 22.439C9.62505 21.2986 9.24373 20.1582 8.86241 19.0178C8.44545 17.7741 8.03206 16.5304 7.6151 15.2866C7.19458 14.0251 6.7705 12.7635 6.34998 11.5019C5.95797 10.3259 5.56239 9.14988 5.17038 7.97385C4.83895 6.97957 4.50753 5.98529 4.17254 4.991C4.03712 4.58474 3.89813 4.17491 3.76271 3.76864C3.97297 3.83992 4.17966 3.90763 4.38992 3.9789C5.32006 4.28895 6.25376 4.60256 7.18389 4.9126C8.32429 5.29392 9.46468 5.67524 10.6051 6.05656C11.8488 6.47352 13.0926 6.88691 14.3363 7.30387C15.5979 7.72439 16.8594 8.14847 18.121 8.56899C19.297 8.961 20.4731 9.35657 21.6491 9.74858C22.6434 10.08 23.6376 10.4114 24.6319 10.7464C25.1344 10.9139 25.6333 11.0814 26.1323 11.2489C25.8365 11.5447 25.5442 11.8369 25.2485 12.1327C24.1294 13.2517 23.0069 14.3743 21.8879 15.4933C21.6277 15.7535 21.3711 16.0101 21.111 16.2702C20.7189 16.6658 20.6904 17.3928 21.1145 17.7812C22.0268 18.6935 22.9356 19.6023 23.8479 20.5146C25.2948 21.9615 26.7417 23.4084 28.185 24.8517C28.2634 24.9301 28.3453 25.012 28.4237 25.0904C28.128 25.3862 27.8322 25.682 27.5364 25.9778C26.7203 26.7975 25.9042 27.61 25.0881 28.4261Z" fill="black"/>
</svg>
