<svg width="32" height="32" viewBox="0 0 32 32" fill="none" xmlns="http://www.w3.org/2000/svg">
<path d="M24.7397 32C24.1209 32 23.6193 31.4983 23.6193 30.8795V25.8602H8.38074V30.8795C8.38074 31.4983 7.87908 32 7.26026 32V32C6.64144 32 6.13978 31.4983 6.13978 30.8795V25.8602H1.12048C0.501655 25.8602 0 25.3586 0 24.7397V24.7397C0 24.1209 0.501656 23.6193 1.12048 23.6193H6.13978V8.38074H1.12048C0.501655 8.38074 0 7.87908 0 7.26026V7.26026C0 6.64144 0.501656 6.13978 1.12048 6.13978H6.13978V1.12048C6.13978 0.501655 6.64144 0 7.26026 0V0C7.87908 0 8.38074 0.501656 8.38074 1.12048V6.13978H23.6193V1.12048C23.6193 0.501655 24.1209 0 24.7397 0V0C25.3586 0 25.8602 0.501656 25.8602 1.12048V6.13978H30.8795C31.4983 6.13978 32 6.64144 32 7.26026V7.26026C32 7.87908 31.4983 8.38074 30.8795 8.38074H25.8602V23.6193H30.8795C31.4983 23.6193 32 24.1209 32 24.7397V24.7397C32 25.3586 31.4983 25.8602 30.8795 25.8602H25.8602V30.8795C25.8602 31.4983 25.3586 32 24.7397 32V32ZM8.38074 23.6193H23.6193V8.38074H8.38074V23.6193Z" fill="#3985F7"/>
</svg>
