<svg width="32" height="32" viewBox="0 0 32 32" fill="none" xmlns="http://www.w3.org/2000/svg">
<path d="M25.2288 0.0388926C24.8925 -0.0600833 24.5282 0.0332901 24.2816 0.279799L1.28321 23.2743V23.2761C1.13562 23.4237 1.04033 23.616 1.01231 23.8214L0.00902803 30.9141V30.916C-0.0320736 31.2111 0.0688125 31.508 0.278058 31.719C0.489174 31.9301 0.786227 32.0309 1.08142 31.9917L8.19003 30.987C8.39367 30.9571 8.58237 30.86 8.72623 30.7143L31.7265 7.71794C32.0946 7.34257 32.0908 6.74123 31.7172 6.36962L25.6416 0.288985C25.5277 0.171335 25.3857 0.0854291 25.2287 0.0387403L25.2288 0.0388926ZM24.9579 2.31721L29.6921 7.04939L28.3395 8.40329L23.6053 3.67112L24.9579 2.31721ZM22.2508 5.02507L26.9849 9.75725L8.38431 28.3462L3.65014 23.6141L22.2508 5.02507ZM2.72563 25.3935L6.60416 29.2778L2.08298 29.9221L2.72568 25.3916L2.72563 25.3935Z" fill="#3985F7"/>
</svg>
