<svg width="32" height="32" viewBox="0 0 32 32" fill="none" xmlns="http://www.w3.org/2000/svg">
<path fill-rule="evenodd" clip-rule="evenodd" d="M16.0176 32C14.7993 32 13.4795 31.7975 12.2613 31.4937C9.21564 30.6835 6.57609 28.8608 4.64718 26.3291C2.8198 23.8987 1.90611 20.8608 2.00763 17.8228C2.21067 14.7848 3.3274 11.8481 5.35783 9.51898V9.31645L5.25631 9.21519L4.2411 8.20253L4.13958 8.10126L4.03805 8.20253L3.73349 8.50633C3.53045 8.70886 3.3274 8.81012 3.02284 8.81012C2.71828 8.81012 2.51523 8.70886 2.31219 8.60759C2.10915 8.40506 2.00763 8.10126 2.00763 7.89873C2.00763 7.59494 2.10915 7.3924 2.31219 7.18987L4.64718 4.86076C4.85022 4.75949 5.05327 4.65823 5.35783 4.65823C5.6624 4.65823 5.86544 4.75949 6.06848 4.86076C6.27152 5.06329 6.37304 5.36709 6.37304 5.56962C6.37304 5.87342 6.27152 6.07595 6.06848 6.27848L5.76392 6.68354L5.56087 6.78481L5.6624 6.88607L6.67761 7.89873L6.88065 8L6.98217 7.89873C9.21564 5.97468 11.9567 4.96202 14.7993 4.75949H15.0024V4.55696V2.22785V2.02532H14.7993H13.5811C13.2765 2.02532 13.0735 1.92405 12.8704 1.72152C12.6674 1.51899 12.5658 1.31646 12.5658 1.01266C12.5658 0.708861 12.6674 0.506329 12.8704 0.303797C13.0735 0.101266 13.2765 0 13.5811 0H18.3526C18.5936 0 18.771 0.0634055 18.9855 0.140045C19.042 0.16026 19.1012 0.181396 19.1647 0.202532C19.3678 0.405063 19.4693 0.607595 19.4693 0.911392C19.4693 1.21519 19.3678 1.41772 19.1647 1.62025C18.9617 1.82278 18.7587 1.92405 18.4541 1.92405H17.2358H16.9313V2.12658V4.4557V4.65823H17.1343C20.2815 4.96202 23.2256 6.17721 25.5606 8.3038C27.7941 10.3291 29.3169 13.1646 29.8245 16.2025C30.3321 19.2405 29.723 22.3797 28.2001 25.0127C26.6773 27.7468 24.2408 29.7721 21.3982 30.9873C19.6723 31.6962 17.845 32 16.0176 32ZM7.48978 9.92405C5.86544 11.6456 4.7487 13.6709 4.2411 16C3.73349 18.3291 3.93653 20.6582 4.85022 22.7848C5.76392 24.9114 7.28674 26.7342 9.31716 28.0506C11.3476 29.3671 13.5811 30.0759 16.0176 30.0759C17.5404 30.0759 19.1647 29.7721 20.586 29.1645C22.0073 28.557 23.3271 27.7468 24.4438 26.6329C25.5606 25.519 26.4743 24.2025 27.0834 22.7848C27.6925 21.3671 27.9971 19.8481 27.9971 18.3291C27.9971 16 27.2864 13.6709 25.9667 11.7468C24.6469 9.82278 22.8195 8.3038 20.586 7.3924C19.1647 6.78481 17.6419 6.48101 16.0176 6.48101C15.2874 6.48101 14.6394 6.56285 13.9258 6.65296C13.8456 6.66308 13.7646 6.67331 13.6826 6.68354C11.3476 7.18987 9.21564 8.3038 7.48978 9.92405ZM16.7278 11.8481C16.9309 12.0506 17.0324 12.2532 17.0324 12.557V17.1139V17.2152L16.9309 17.3164L21.2963 21.0633C21.347 21.1139 21.3724 21.1645 21.3978 21.2152C21.4232 21.2658 21.4486 21.3164 21.4993 21.3671C21.6009 21.5696 21.6009 21.6709 21.6009 21.7721C21.6716 21.9134 21.6437 22.0053 21.6203 22.0824C21.6102 22.1159 21.6009 22.1465 21.6009 22.1772C21.6009 22.2785 21.4993 22.3797 21.3978 22.481C21.347 22.5316 21.2963 22.557 21.2455 22.5823C21.1948 22.6076 21.144 22.6329 21.0932 22.6835C20.9917 22.7848 20.8902 22.7848 20.6872 22.7848C20.6364 22.7848 20.5856 22.7595 20.5349 22.7342C20.4841 22.7089 20.4334 22.6835 20.3826 22.6835C20.2811 22.6835 20.1796 22.5823 20.078 22.481L15.3065 18.4304C15.2558 18.3797 15.2304 18.3291 15.205 18.2785C15.1796 18.2278 15.1542 18.1772 15.1035 18.1266C15.002 18.0253 15.002 17.8228 15.002 17.7215V12.557C15.002 12.2532 15.1035 12.0506 15.3065 11.8481C15.5096 11.6456 15.7126 11.5443 16.0172 11.5443C16.3217 11.5443 16.5248 11.6456 16.7278 11.8481Z" fill="#3985F7"/>
</svg>
