<svg width="32" height="32" viewBox="0 0 32 32" fill="none" xmlns="http://www.w3.org/2000/svg">
<g clip-path="url(#clip0)">
<path d="M2.04193 0.000795873C1.21217 0.00212341 0.466052 0.503975 0.152725 1.27266C-0.159267 2.04135 0.0252728 2.92158 0.618722 3.50042L13.1131 15.9948L0.618722 28.4877C0.227088 28.8688 0.00403084 29.3905 5.43504e-05 29.9362C-0.0039286 30.4832 0.211145 31.0075 0.59748 31.3939C0.983812 31.7802 1.50823 31.9953 2.05522 31.9913C2.60088 31.9874 3.12262 31.7643 3.50365 31.3727L15.9966 18.8783L28.4896 31.3727C28.8707 31.7683 29.3924 31.994 29.9407 31.9993C30.489 32.0046 31.0161 31.7882 31.4037 31.4006C31.7914 31.0129 32.0065 30.4858 31.9998 29.9375C31.9945 29.3892 31.7675 28.8675 31.3719 28.4878L18.8789 15.9948L31.3719 3.50045C31.9746 2.91495 32.1552 2.01881 31.8272 1.24483C31.4993 0.470838 30.7306 -0.0230631 29.8902 0.000829825C29.3605 0.0180892 28.8587 0.2398 28.4896 0.618172L15.9966 13.1112L3.50362 0.618172C3.11994 0.223853 2.59154 0.000829825 2.0419 0.000829825L2.04193 0.000795873Z" fill="#3985F7"/>
</g>
<defs>
<clipPath id="clip0">
<rect width="32" height="32" fill="white"/>
</clipPath>
</defs>
</svg>
