<svg width="32" height="32" viewBox="0 0 32 32" fill="none" xmlns="http://www.w3.org/2000/svg">
<path fill-rule="evenodd" clip-rule="evenodd" d="M31.4142 19.5858L25.5 25.5L20.0939 31.3566C19.7153 31.7667 19.1825 32 18.6243 32H2C0.89543 32 0 31.1046 0 30V2C0 0.895431 0.895431 0 2 0H30C31.1046 0 32 0.895431 32 2V18.1716C32 18.702 31.7893 19.2107 31.4142 19.5858ZM23.9133 23.9755L19.1 29.1898V20C19.1 19.5029 19.5029 19.1 20 19.1H28.7887L23.9133 23.9755ZM29.8 16.9H20C18.2879 16.9 16.9 18.2879 16.9 20V29.8H2.2V2.2H29.8V16.9Z" fill="#3985F7"/>
</svg>
