<svg width="32" height="32" viewBox="0 0 32 32" fill="none" xmlns="http://www.w3.org/2000/svg">
<path d="M31.071 9.63158L23.5355 1.94737C22.9161 1.31579 22.0903 1 21.2645 1C20.4387 1 19.6129 1.31579 18.9935 1.94737L1.85806 19.4211C0.619355 20.6842 0.619355 22.7895 1.85806 24.0526L6.8129 29.1053H0.929032C0.412903 29.1053 0 29.5263 0 30.0526C0 30.5789 0.412903 31 0.929032 31H21.471C21.9871 31 22.4 30.5789 22.4 30.0526C22.4 29.5263 21.9871 29.1053 21.471 29.1053H16.5161L31.071 14.2632C32.3097 13 32.3097 10.8947 31.071 9.63158ZM29.729 13L21.9871 20.8947L19.5097 18.3684L23.2258 14.5789C23.5355 14.2632 23.5355 13.6316 23.2258 13.3158C23.0194 13.1053 22.8129 13 22.6065 13C22.4 13 22.1935 13.1053 21.9871 13.3158L18.271 17.1053L16.2065 15L18.9935 12.1579C19.3032 11.8421 19.3032 11.2105 18.9935 10.8947C18.6839 10.5789 18.0645 10.5789 17.7548 10.8947L14.9677 13.7368L12.4903 11.2105L20.2323 3.31579C20.5419 3 20.8516 2.89474 21.2645 2.89474C21.6774 2.89474 21.9871 3 22.2968 3.31579L29.8323 11C30.3484 11.5263 30.3484 12.3684 29.729 13ZM17.6516 19L20.7484 22.1579L13.9355 29.1053H9.29032L3.09677 22.7895C2.58065 22.2632 2.58065 21.3158 3.09677 20.6842L11.1484 12.4737L17.5484 18.8947L17.6516 19Z" fill="black"/>
</svg>
