<svg width="32" height="32" viewBox="0 0 32 32" fill="none" xmlns="http://www.w3.org/2000/svg">
<path fill-rule="evenodd" clip-rule="evenodd" d="M32 4.6966V6.08981C32 6.43811 31.6517 6.78641 31.3034 6.78641H23.6408H23.2925V7.13471V26.9879C23.2925 27.3362 22.9442 27.6845 22.5959 27.6845H21.2027C20.8543 27.6845 20.5061 27.3362 20.5061 26.9879V7.13471V6.78641H20.1577H12.4951C12.1468 6.78641 11.7985 6.43811 11.7985 6.08981V4.6966C11.7985 4.3483 12.1468 4 12.4951 4H31.3034C31.6517 4 32 4.3483 32 4.6966ZM16.7185 11.6626V13.0558C16.7185 13.4041 16.3702 13.7524 16.0219 13.7524H10.1007H9.75244V14.1007V26.9879C9.75244 27.3362 9.40414 27.6845 9.05584 27.6845H7.66263C7.31433 27.6845 6.96603 27.3362 6.96603 26.9879V14.1007V13.7524H6.61773H0.696603C0.348302 13.7524 0 13.4041 0 13.0558V11.6626C0 11.3143 0.348302 10.966 0.696603 10.966H16.0219C16.3702 10.966 16.7185 11.3143 16.7185 11.6626Z" fill="#3985F7"/>
</svg>
